<?xml version="1.0" encoding="UTF-8" standalone="no"?>
<!DOCTYPE svg PUBLIC "-//W3C//DTD SVG 1.1//EN"
 "http://www.w3.org/Graphics/SVG/1.1/DTD/svg11.dtd">
<!-- Generated by graphviz version 2.43.0 (0)
 -->
<!-- Title: %3 Pages: 1 -->
<svg width="193pt" height="162pt"
 viewBox="0.00 0.00 192.60 162.00" xmlns="http://www.w3.org/2000/svg" xmlns:xlink="http://www.w3.org/1999/xlink">
<g id="graph0" class="graph" transform="scale(1 1) rotate(0) translate(4 158)">
<title>%3</title>
<polygon fill="white" stroke="transparent" points="-4,4 -4,-158 188.6,-158 188.6,4 -4,4"/>
<!-- start -->
<g id="node1" class="node">
<title>start</title>
<ellipse fill="black" stroke="black" cx="1.8" cy="-85" rx="1.8" ry="1.8"/>
</g>
<!-- 3 -->
<g id="node4" class="node">
<title>3</title>
<ellipse fill="none" stroke="black" cx="67.6" cy="-85" rx="27" ry="18"/>
<text text-anchor="middle" x="67.6" y="-81.3" font-family="Times,serif" font-size="14.00">3</text>
</g>
<!-- start&#45;&gt;3 -->
<g id="edge1" class="edge">
<title>start&#45;&gt;3</title>
<path fill="none" stroke="black" d="M3.91,-85C7.37,-85 18.49,-85 30.42,-85"/>
<polygon fill="black" stroke="black" points="30.48,-88.5 40.48,-85 30.48,-81.5 30.48,-88.5"/>
</g>
<!-- 0 -->
<g id="node2" class="node">
<title>0</title>
<ellipse fill="none" stroke="black" cx="162.6" cy="-132" rx="18" ry="18"/>
<ellipse fill="none" stroke="black" cx="162.6" cy="-132" rx="22" ry="22"/>
<text text-anchor="middle" x="162.6" y="-128.3" font-family="Times,serif" font-size="14.00">0</text>
<text text-anchor="middle" x="159.1" y="-98.8" font-family="Times,serif" font-size="14.00">ACC(0)</text>
</g>
<!-- 1 -->
<g id="node3" class="node">
<title>1</title>
<ellipse fill="none" stroke="black" cx="162.6" cy="-37" rx="18" ry="18"/>
<ellipse fill="none" stroke="black" cx="162.6" cy="-37" rx="22" ry="22"/>
<text text-anchor="middle" x="162.6" y="-33.3" font-family="Times,serif" font-size="14.00">1</text>
<text text-anchor="middle" x="115.1" y="-3.8" font-family="Times,serif" font-size="14.00">ACC(1)</text>
</g>
<!-- 1&#45;&gt;1 -->
<g id="edge3" class="edge">
<title>1&#45;&gt;1</title>
<path fill="none" stroke="black" d="M154.59,-57.58C153.49,-67.84 156.15,-77 162.6,-77 166.73,-77 169.31,-73.24 170.34,-67.84"/>
<polygon fill="black" stroke="black" points="173.84,-67.67 170.61,-57.58 166.85,-67.49 173.84,-67.67"/>
<text text-anchor="middle" x="162.6" y="-80.8" font-family="Times,serif" font-size="14.00">b</text>
</g>
<!-- 3&#45;&gt;0 -->
<g id="edge4" class="edge">
<title>3&#45;&gt;0</title>
<path fill="none" stroke="black" d="M89.7,-95.67C102.59,-102.18 119.24,-110.59 133.26,-117.68"/>
<polygon fill="black" stroke="black" points="131.97,-120.95 142.48,-122.34 135.13,-114.7 131.97,-120.95"/>
<text text-anchor="middle" x="117.6" y="-114.8" font-family="Times,serif" font-size="14.00">a</text>
</g>
<!-- 3&#45;&gt;1 -->
<g id="edge2" class="edge">
<title>3&#45;&gt;1</title>
<path fill="none" stroke="black" d="M89.7,-74.11C102.68,-67.41 119.46,-58.75 133.55,-51.48"/>
<polygon fill="black" stroke="black" points="135.51,-54.41 142.79,-46.71 132.3,-48.19 135.51,-54.41"/>
<text text-anchor="middle" x="117.6" y="-64.8" font-family="Times,serif" font-size="14.00">b</text>
</g>
</g>
</svg>
