<?xml version="1.0" encoding="UTF-8" standalone="no"?>
<!DOCTYPE svg PUBLIC "-//W3C//DTD SVG 1.1//EN"
 "http://www.w3.org/Graphics/SVG/1.1/DTD/svg11.dtd">
<!-- Generated by graphviz version 2.43.0 (0)
 -->
<!-- Title: %3 Pages: 1 -->
<svg width="488pt" height="148pt"
 viewBox="0.00 0.00 487.60 148.23" xmlns="http://www.w3.org/2000/svg" xmlns:xlink="http://www.w3.org/1999/xlink">
<g id="graph0" class="graph" transform="scale(1 1) rotate(0) translate(4 144.23)">
<title>%3</title>
<polygon fill="white" stroke="transparent" points="-4,4 -4,-144.23 483.6,-144.23 483.6,4 -4,4"/>
<!-- start -->
<g id="node1" class="node">
<title>start</title>
<ellipse fill="black" stroke="black" cx="1.8" cy="-91.23" rx="1.8" ry="1.8"/>
</g>
<!-- 6 -->
<g id="node4" class="node">
<title>6</title>
<ellipse fill="none" stroke="black" cx="67.6" cy="-91.23" rx="27" ry="18"/>
<text text-anchor="middle" x="67.6" y="-87.53" font-family="Times,serif" font-size="14.00">6</text>
</g>
<!-- start&#45;&gt;6 -->
<g id="edge1" class="edge">
<title>start&#45;&gt;6</title>
<path fill="none" stroke="black" d="M3.91,-91.23C7.37,-91.23 18.49,-91.23 30.42,-91.23"/>
<polygon fill="black" stroke="black" points="30.48,-94.73 40.48,-91.23 30.48,-87.73 30.48,-94.73"/>
</g>
<!-- 5 -->
<g id="node2" class="node">
<title>5</title>
<ellipse fill="none" stroke="black" cx="457.6" cy="-43.23" rx="18" ry="18"/>
<ellipse fill="none" stroke="black" cx="457.6" cy="-43.23" rx="22" ry="22"/>
<text text-anchor="middle" x="457.6" y="-39.53" font-family="Times,serif" font-size="14.00">5</text>
<text text-anchor="middle" x="454.1" y="-10.03" font-family="Times,serif" font-size="14.00">ACC(1)</text>
</g>
<!-- 1 -->
<g id="node3" class="node">
<title>1</title>
<ellipse fill="none" stroke="black" cx="264.6" cy="-118.23" rx="18" ry="18"/>
<ellipse fill="none" stroke="black" cx="264.6" cy="-118.23" rx="22" ry="22"/>
<text text-anchor="middle" x="264.6" y="-114.53" font-family="Times,serif" font-size="14.00">1</text>
<text text-anchor="middle" x="261.1" y="-85.03" font-family="Times,serif" font-size="14.00">ACC(0)</text>
</g>
<!-- 0 -->
<g id="node7" class="node">
<title>0</title>
<ellipse fill="none" stroke="black" cx="165.6" cy="-118.23" rx="27" ry="18"/>
<text text-anchor="middle" x="165.6" y="-114.53" font-family="Times,serif" font-size="14.00">0</text>
</g>
<!-- 6&#45;&gt;0 -->
<g id="edge6" class="edge">
<title>6&#45;&gt;0</title>
<path fill="none" stroke="black" d="M92.82,-98.04C104.31,-101.27 118.22,-105.18 130.73,-108.7"/>
<polygon fill="black" stroke="black" points="129.81,-112.08 140.38,-111.42 131.7,-105.34 129.81,-112.08"/>
<text text-anchor="middle" x="116.6" y="-109.03" font-family="Times,serif" font-size="14.00">ϵ</text>
</g>
<!-- 4 -->
<g id="node8" class="node">
<title>4</title>
<ellipse fill="none" stroke="black" cx="165.6" cy="-64.23" rx="27" ry="18"/>
<text text-anchor="middle" x="165.6" y="-60.53" font-family="Times,serif" font-size="14.00">4</text>
</g>
<!-- 6&#45;&gt;4 -->
<g id="edge7" class="edge">
<title>6&#45;&gt;4</title>
<path fill="none" stroke="black" d="M92.82,-84.41C104.31,-81.18 118.22,-77.27 130.73,-73.75"/>
<polygon fill="black" stroke="black" points="131.7,-77.11 140.38,-71.04 129.81,-70.38 131.7,-77.11"/>
<text text-anchor="middle" x="116.6" y="-82.03" font-family="Times,serif" font-size="14.00">ϵ</text>
</g>
<!-- 2 -->
<g id="node5" class="node">
<title>2</title>
<ellipse fill="none" stroke="black" cx="264.6" cy="-20.23" rx="27" ry="18"/>
<text text-anchor="middle" x="264.6" y="-16.53" font-family="Times,serif" font-size="14.00">2</text>
</g>
<!-- 3 -->
<g id="node6" class="node">
<title>3</title>
<ellipse fill="none" stroke="black" cx="364.6" cy="-20.23" rx="27" ry="18"/>
<text text-anchor="middle" x="364.6" y="-16.53" font-family="Times,serif" font-size="14.00">3</text>
</g>
<!-- 2&#45;&gt;3 -->
<g id="edge2" class="edge">
<title>2&#45;&gt;3</title>
<path fill="none" stroke="black" d="M291.6,-20.23C302.57,-20.23 315.52,-20.23 327.39,-20.23"/>
<polygon fill="black" stroke="black" points="327.47,-23.73 337.47,-20.23 327.47,-16.73 327.47,-23.73"/>
<text text-anchor="middle" x="314.6" y="-24.03" font-family="Times,serif" font-size="14.00">b</text>
</g>
<!-- 3&#45;&gt;5 -->
<g id="edge5" class="edge">
<title>3&#45;&gt;5</title>
<path fill="none" stroke="black" d="M389.99,-26.39C401.14,-29.21 414.48,-32.58 426.27,-35.56"/>
<polygon fill="black" stroke="black" points="425.6,-39 436.15,-38.06 427.31,-32.21 425.6,-39"/>
<text text-anchor="middle" x="413.6" y="-36.03" font-family="Times,serif" font-size="14.00">ϵ</text>
</g>
<!-- 3&#45;&gt;2 -->
<g id="edge4" class="edge">
<title>3&#45;&gt;2</title>
<path fill="none" stroke="black" d="M344.46,-8.04C334.29,-2.97 321.47,1.23 309.6,-1.23 305.08,-2.16 300.45,-3.58 295.97,-5.24"/>
<polygon fill="black" stroke="black" points="294.43,-2.09 286.51,-9.13 297.09,-8.56 294.43,-2.09"/>
<text text-anchor="middle" x="314.6" y="-5.03" font-family="Times,serif" font-size="14.00">ϵ</text>
</g>
<!-- 0&#45;&gt;1 -->
<g id="edge3" class="edge">
<title>0&#45;&gt;1</title>
<path fill="none" stroke="black" d="M192.85,-118.23C205.04,-118.23 219.61,-118.23 232.36,-118.23"/>
<polygon fill="black" stroke="black" points="232.55,-121.73 242.55,-118.23 232.55,-114.73 232.55,-121.73"/>
<text text-anchor="middle" x="215.1" y="-122.03" font-family="Times,serif" font-size="14.00">a</text>
</g>
<!-- 4&#45;&gt;5 -->
<g id="edge9" class="edge">
<title>4&#45;&gt;5</title>
<path fill="none" stroke="black" d="M192.73,-64.17C238.49,-63.77 336.01,-61.65 417.6,-51.23 420.33,-50.88 423.16,-50.44 425.99,-49.96"/>
<polygon fill="black" stroke="black" points="426.88,-53.35 436.05,-48.05 425.57,-46.47 426.88,-53.35"/>
<text text-anchor="middle" x="314.6" y="-64.03" font-family="Times,serif" font-size="14.00">ϵ</text>
</g>
<!-- 4&#45;&gt;2 -->
<g id="edge8" class="edge">
<title>4&#45;&gt;2</title>
<path fill="none" stroke="black" d="M185.32,-51.36C192.94,-46.5 201.97,-41.19 210.6,-37.23 216.54,-34.5 223.03,-32.03 229.38,-29.87"/>
<polygon fill="black" stroke="black" points="230.68,-33.13 239.13,-26.74 228.54,-26.46 230.68,-33.13"/>
<text text-anchor="middle" x="215.1" y="-41.03" font-family="Times,serif" font-size="14.00">ϵ</text>
</g>
</g>
</svg>
